<svg xmlns="http://www.w3.org/2000/svg" width="359" height="176" viewBox="0 0 359 176" fill="none"><path d="M344.48 84.96C343.68 84.96 343.16 84.56 342.92 83.76L338.96 70.92C338.8 70.6 338.6 70.44 338.36 70.44H306.68C306.44 70.44 306.24 70.6 306.08 70.92L302.12 83.76C301.88 84.56 301.36 84.96 300.56 84.96H288.56C288.08 84.96 287.72 84.84 287.48 84.6C287.24 84.28 287.2 83.84 287.36 83.28L313.4 2.15996C313.64 1.35996 314.16 0.959961 314.96 0.959961H329.96C330.76 0.959961 331.28 1.35996 331.52 2.15996L357.68 83.28C357.76 83.44 357.8 83.64 357.8 83.88C357.8 84.6 357.36 84.96 356.48 84.96H344.48ZM309.8 58.8C309.72 59.28 309.88 59.52 310.28 59.52H334.64C335.12 59.52 335.28 59.28 335.12 58.8L322.76 18.6C322.68 18.28 322.56 18.12 322.4 18.12C322.24 18.12 322.12 18.28 322.04 18.6L309.8 58.8Z" fill="#78814A"></path><path d="M261.245 2.39997C261.245 1.99997 261.365 1.67997 261.605 1.43996C261.925 1.11996 262.285 0.959961 262.685 0.959961H273.725C274.125 0.959961 274.445 1.11996 274.685 1.43996C275.005 1.67997 275.165 1.99997 275.165 2.39997V83.52C275.165 83.92 275.005 84.28 274.685 84.6C274.445 84.84 274.125 84.96 273.725 84.96H262.685C262.285 84.96 261.925 84.84 261.605 84.6C261.365 84.28 261.245 83.92 261.245 83.52V49.2C261.245 48.8 261.045 48.6 260.645 48.6H230.045C229.645 48.6 229.445 48.8 229.445 49.2V83.52C229.445 83.92 229.285 84.28 228.965 84.6C228.725 84.84 228.405 84.96 228.005 84.96H216.965C216.565 84.96 216.205 84.84 215.885 84.6C215.645 84.28 215.525 83.92 215.525 83.52V2.39997C215.525 1.99997 215.645 1.67997 215.885 1.43996C216.205 1.11996 216.565 0.959961 216.965 0.959961H228.005C228.405 0.959961 228.725 1.11996 228.965 1.43996C229.285 1.67997 229.445 1.99997 229.445 2.39997V36C229.445 36.4 229.645 36.6 230.045 36.6H260.645C261.045 36.6 261.245 36.4 261.245 36V2.39997Z" fill="#78814A"></path><path d="M170.597 0C176.517 0 181.756 1.12043 186.316 3.36035C190.876 5.60034 194.397 8.75988 196.877 12.8398C199.357 16.9198 200.597 21.64 200.597 27C200.597 27.3999 200.437 27.7601 200.117 28.0801C199.877 28.32 199.557 28.4404 199.157 28.4404L190.493 28.9102C190.657 29.6401 190.807 30.3807 190.945 31.1309L185.151 21.0303L168.744 19.9238L166.9 15.96L155.378 17.1582L145.699 29.6025V36.5156L153.073 44.627L161.554 42.876L168.007 44.166L166.624 49.1436L171.049 57.1631L168.836 62.7861L174.059 78.04L181.096 76.8896L187.549 69.6074L188.102 64.5371L192.249 61.4033L191.863 57.1621L199.157 57.4805C199.557 57.4805 199.877 57.5999 200.117 57.8398C200.437 58.0797 200.597 58.3599 200.597 58.6797C200.597 64.1197 199.357 68.9201 196.877 73.0801C194.397 77.1601 190.876 80.3196 186.316 82.5596C181.756 84.7995 176.517 85.9199 170.597 85.9199C164.597 85.9199 159.317 84.7604 154.757 82.4404C150.197 80.0405 146.677 76.7202 144.197 72.4805C141.717 68.2405 140.477 63.3197 140.477 57.7197V28.0801C140.477 22.4801 141.717 17.5603 144.197 13.3203C146.677 9.08038 150.197 5.80046 154.757 3.48047C159.317 1.16049 164.597 2.36009e-05 170.597 0ZM196.129 62.6699L194.369 62.7354C192.814 65.927 192.716 67.7249 192.544 71.4688L194.825 72.0557L197.693 65.2119L198.02 59.9316L196.129 62.6699Z" fill="#78814A"></path><path d="M118.894 84.96C118.094 84.96 117.574 84.56 117.334 83.76L113.374 70.92C113.214 70.6 113.014 70.44 112.774 70.44H81.0938C80.8538 70.44 80.6538 70.6 80.4938 70.92L76.5338 83.76C76.2938 84.56 75.7738 84.96 74.9738 84.96H62.9738C62.4938 84.96 62.1338 84.84 61.8938 84.6C61.6538 84.28 61.6138 83.84 61.7738 83.28L87.8138 2.15996C88.0538 1.35996 88.5738 0.959961 89.3738 0.959961H104.374C105.174 0.959961 105.694 1.35996 105.934 2.15996L132.094 83.28C132.174 83.44 132.214 83.64 132.214 83.88C132.214 84.6 131.774 84.96 130.894 84.96H118.894ZM84.2138 58.8C84.1338 59.28 84.2938 59.52 84.6938 59.52H109.054C109.534 59.52 109.694 59.28 109.534 58.8L97.1738 18.6C97.0938 18.28 96.9738 18.12 96.8138 18.12C96.6538 18.12 96.5338 18.28 96.4538 18.6L84.2138 58.8Z" fill="#78814A"></path><path d="M34.44 0.839844C39.48 0.839844 43.92 1.87984 47.76 3.95985C51.6 6.03984 54.56 8.99984 56.64 12.8398C58.8 16.5998 59.88 20.9598 59.88 25.9198C59.88 30.7998 58.8 35.1198 56.64 38.8798C54.48 42.6398 51.4 45.5598 47.4 47.6398C43.48 49.6398 38.92 50.6398 33.72 50.6398H14.52C14.12 50.6398 13.92 50.8398 13.92 51.2398V83.5198C13.92 83.9198 13.76 84.2798 13.44 84.5998C13.2 84.8398 12.88 84.9598 12.48 84.9598H1.44C1.04 84.9598 0.68 84.8398 0.36 84.5998C0.12 84.2798 0 83.9198 0 83.5198V2.27985C0 1.87985 0.12 1.55984 0.36 1.31984C0.68 0.999843 1.04 0.839844 1.44 0.839844H34.44ZM32.4 39.3598C36.48 39.3598 39.76 38.1598 42.24 35.7598C44.72 33.3598 45.96 30.1998 45.96 26.2798C45.96 22.2798 44.72 19.0398 42.24 16.5598C39.76 14.0798 36.48 12.8398 32.4 12.8398H14.52C14.12 12.8398 13.92 13.0398 13.92 13.4398V38.7598C13.92 39.1598 14.12 39.3598 14.52 39.3598H32.4Z" fill="#78814A"></path><rect width="358.52" height="77" transform="translate(0 94)" fill="#78814A"></rect><path d="M29.4161 120.872C29.5453 120.872 29.6486 120.924 29.7261 121.027C29.8295 121.104 29.8811 121.208 29.8811 121.337V124.321C29.8811 124.45 29.8295 124.567 29.7261 124.67C29.6486 124.747 29.5453 124.786 29.4161 124.786H22.2853C22.1561 124.786 22.0915 124.851 22.0915 124.98V147.535C22.0915 147.664 22.0398 147.78 21.9365 147.884C21.859 147.961 21.7556 148 21.6265 148H18.0611C17.9319 148 17.8156 147.961 17.7123 147.884C17.6348 147.78 17.596 147.664 17.596 147.535V124.98C17.596 124.851 17.5314 124.786 17.4022 124.786H10.5427C10.4135 124.786 10.2973 124.747 10.1939 124.67C10.1164 124.567 10.0777 124.45 10.0777 124.321V121.337C10.0777 121.208 10.1164 121.104 10.1939 121.027C10.2973 120.924 10.4135 120.872 10.5427 120.872H29.4161ZM41.4666 148.388C39.5288 148.388 37.8107 148 36.3122 147.225C34.8137 146.424 33.6511 145.3 32.8243 143.853C32.0234 142.406 31.623 140.74 31.623 138.854V130.018C31.623 128.158 32.0363 126.517 32.8631 125.096C33.6899 123.649 34.8396 122.538 36.3122 121.763C37.8107 120.962 39.5288 120.562 41.4666 120.562C43.4301 120.562 45.1482 120.962 46.6209 121.763C48.1194 122.538 49.282 123.649 50.1088 125.096C50.9355 126.517 51.3489 128.158 51.3489 130.018V138.854C51.3489 140.74 50.9355 142.406 50.1088 143.853C49.282 145.3 48.1194 146.424 46.6209 147.225C45.1482 148 43.4301 148.388 41.4666 148.388ZM41.4666 144.512C43.0942 144.512 44.399 144.008 45.3808 143.001C46.3625 141.993 46.8534 140.663 46.8534 139.009V129.979C46.8534 128.3 46.3625 126.956 45.3808 125.949C44.399 124.941 43.0942 124.437 41.4666 124.437C39.8647 124.437 38.5729 124.941 37.5911 125.949C36.6094 126.956 36.1185 128.3 36.1185 129.979V139.009C36.1185 140.663 36.6094 141.993 37.5911 143.001C38.5729 144.008 39.8647 144.512 41.4666 144.512ZM65.4591 148.31C63.5473 148.31 61.855 147.935 60.3823 147.186C58.9097 146.437 57.7599 145.378 56.9332 144.008C56.1323 142.613 55.7318 141.011 55.7318 139.203V121.337C55.7318 121.208 55.7706 121.104 55.8481 121.027C55.9514 120.924 56.0677 120.872 56.1969 120.872H59.7623C59.8914 120.872 59.9948 120.924 60.0723 121.027C60.1756 121.104 60.2273 121.208 60.2273 121.337V139.28C60.2273 140.805 60.7053 142.045 61.6612 143.001C62.6172 143.957 63.8831 144.435 65.4591 144.435C67.0352 144.435 68.3011 143.957 69.2571 143.001C70.213 142.045 70.691 140.805 70.691 139.28V121.337C70.691 121.208 70.7297 121.104 70.8072 121.027C70.9106 120.924 71.0269 120.872 71.156 120.872H74.7214C74.8506 120.872 74.954 120.924 75.0315 121.027C75.1348 121.104 75.1865 121.208 75.1865 121.337V139.203C75.1865 141.011 74.786 142.613 73.9851 144.008C73.1842 145.378 72.0474 146.437 70.5747 147.186C69.1021 147.935 67.3969 148.31 65.4591 148.31ZM95.445 148C95.1867 148 95.0058 147.884 94.9025 147.651L89.7869 136.49C89.7352 136.387 89.6577 136.335 89.5544 136.335H84.9038C84.7747 136.335 84.7101 136.4 84.7101 136.529V147.535C84.7101 147.664 84.6584 147.78 84.555 147.884C84.4775 147.961 84.3742 148 84.245 148H80.6796C80.5504 148 80.4342 147.961 80.3308 147.884C80.2533 147.78 80.2146 147.664 80.2146 147.535V121.337C80.2146 121.208 80.2533 121.104 80.3308 121.027C80.4342 120.924 80.5504 120.872 80.6796 120.872H91.3371C92.9131 120.872 94.3082 121.208 95.5225 121.88C96.7368 122.525 97.6799 123.456 98.3516 124.67C99.0233 125.858 99.3592 127.228 99.3592 128.778C99.3592 130.561 98.8942 132.085 97.9641 133.351C97.0598 134.591 95.7938 135.457 94.1661 135.947C94.1145 135.947 94.0757 135.973 94.0499 136.025C94.024 136.077 94.024 136.128 94.0499 136.18L99.5142 147.457C99.5659 147.561 99.5917 147.638 99.5917 147.69C99.5917 147.897 99.4496 148 99.1654 148H95.445ZM84.9038 124.747C84.7747 124.747 84.7101 124.812 84.7101 124.941V132.653C84.7101 132.782 84.7747 132.847 84.9038 132.847H90.717C91.9571 132.847 92.9518 132.485 93.7011 131.762C94.4762 131.013 94.8637 130.031 94.8637 128.817C94.8637 127.602 94.4762 126.621 93.7011 125.871C92.9518 125.122 91.9571 124.747 90.717 124.747H84.9038ZM112.353 148.31C110.338 148.31 108.581 147.987 107.082 147.341C105.584 146.695 104.421 145.791 103.594 144.628C102.793 143.466 102.393 142.096 102.393 140.52V139.552C102.393 139.422 102.432 139.319 102.509 139.242C102.613 139.138 102.729 139.086 102.858 139.086H106.307C106.436 139.086 106.54 139.138 106.617 139.242C106.721 139.319 106.772 139.422 106.772 139.552V140.288C106.772 141.476 107.302 142.471 108.361 143.272C109.42 144.047 110.867 144.435 112.702 144.435C114.278 144.435 115.466 144.099 116.267 143.427C117.068 142.755 117.468 141.89 117.468 140.83C117.468 140.107 117.249 139.5 116.81 139.009C116.37 138.492 115.737 138.027 114.911 137.614C114.11 137.2 112.895 136.684 111.268 136.064C109.433 135.392 107.948 134.759 106.811 134.165C105.674 133.57 104.718 132.77 103.943 131.762C103.194 130.728 102.819 129.45 102.819 127.925C102.819 125.652 103.646 123.856 105.3 122.538C106.953 121.221 109.162 120.562 111.927 120.562C113.864 120.562 115.569 120.898 117.042 121.57C118.541 122.241 119.703 123.184 120.53 124.399C121.357 125.587 121.77 126.969 121.77 128.545V129.204C121.77 129.333 121.718 129.45 121.615 129.553C121.538 129.63 121.434 129.669 121.305 129.669H117.817C117.688 129.669 117.572 129.63 117.468 129.553C117.391 129.45 117.352 129.333 117.352 129.204V128.778C117.352 127.564 116.848 126.543 115.841 125.716C114.859 124.864 113.49 124.437 111.733 124.437C110.312 124.437 109.201 124.734 108.4 125.329C107.625 125.923 107.237 126.763 107.237 127.848C107.237 128.623 107.444 129.256 107.857 129.747C108.271 130.238 108.891 130.69 109.718 131.103C110.544 131.491 111.823 131.994 113.554 132.615C115.389 133.312 116.848 133.945 117.933 134.513C119.044 135.082 119.987 135.883 120.763 136.916C121.563 137.924 121.964 139.19 121.964 140.714C121.964 143.039 121.098 144.887 119.367 146.256C117.662 147.625 115.324 148.31 112.353 148.31ZM150.294 148C150.036 148 149.868 147.871 149.79 147.612L148.511 143.466C148.46 143.362 148.395 143.311 148.317 143.311H138.086C138.009 143.311 137.944 143.362 137.893 143.466L136.614 147.612C136.536 147.871 136.368 148 136.11 148H132.234C132.079 148 131.963 147.961 131.886 147.884C131.808 147.78 131.795 147.638 131.847 147.457L140.257 121.259C140.334 121.001 140.502 120.872 140.76 120.872H145.605C145.863 120.872 146.031 121.001 146.108 121.259L154.557 147.457C154.583 147.509 154.596 147.574 154.596 147.651C154.596 147.884 154.454 148 154.169 148H150.294ZM139.094 139.552C139.068 139.707 139.12 139.784 139.249 139.784H147.116C147.271 139.784 147.323 139.707 147.271 139.552L143.279 126.569C143.254 126.465 143.215 126.414 143.163 126.414C143.111 126.414 143.073 126.465 143.047 126.569L139.094 139.552ZM173.99 121.337C173.99 121.208 174.029 121.104 174.106 121.027C174.209 120.924 174.326 120.872 174.455 120.872H178.02C178.149 120.872 178.253 120.924 178.33 121.027C178.434 121.104 178.485 121.208 178.485 121.337V147.535C178.485 147.664 178.434 147.78 178.33 147.884C178.253 147.961 178.149 148 178.02 148H174.571C174.313 148 174.132 147.897 174.029 147.69L162.867 129.398C162.816 129.32 162.764 129.295 162.712 129.32C162.661 129.32 162.635 129.372 162.635 129.475L162.712 147.535C162.712 147.664 162.661 147.78 162.557 147.884C162.48 147.961 162.376 148 162.247 148H158.682C158.553 148 158.436 147.961 158.333 147.884C158.256 147.78 158.217 147.664 158.217 147.535V121.337C158.217 121.208 158.256 121.104 158.333 121.027C158.436 120.924 158.553 120.872 158.682 120.872H162.131C162.389 120.872 162.57 120.975 162.674 121.182L173.796 139.474C173.848 139.552 173.899 139.59 173.951 139.59C174.003 139.564 174.029 139.5 174.029 139.397L173.99 121.337ZM183.878 148C183.749 148 183.633 147.961 183.529 147.884C183.452 147.78 183.413 147.664 183.413 147.535V121.337C183.413 121.208 183.452 121.104 183.529 121.027C183.633 120.924 183.749 120.872 183.878 120.872H193.334C195.169 120.872 196.783 121.195 198.179 121.841C199.574 122.487 200.646 123.417 201.395 124.631C202.17 125.82 202.558 127.215 202.558 128.817V140.055C202.558 141.657 202.17 143.065 201.395 144.28C200.646 145.468 199.574 146.385 198.179 147.031C196.783 147.677 195.169 148 193.334 148H183.878ZM187.909 143.931C187.909 144.06 187.973 144.125 188.102 144.125H193.528C194.897 144.125 195.982 143.698 196.783 142.846C197.61 141.967 198.036 140.805 198.062 139.358V129.553C198.062 128.08 197.649 126.918 196.822 126.065C195.995 125.187 194.884 124.747 193.489 124.747H188.102C187.973 124.747 187.909 124.812 187.909 124.941V143.931ZM232.18 120.872C232.309 120.872 232.413 120.924 232.49 121.027C232.593 121.104 232.645 121.208 232.645 121.337V124.321C232.645 124.45 232.593 124.567 232.49 124.67C232.413 124.747 232.309 124.786 232.18 124.786H225.049C224.92 124.786 224.855 124.851 224.855 124.98V147.535C224.855 147.664 224.804 147.78 224.7 147.884C224.623 147.961 224.52 148 224.39 148H220.825C220.696 148 220.58 147.961 220.476 147.884C220.399 147.78 220.36 147.664 220.36 147.535V124.98C220.36 124.851 220.295 124.786 220.166 124.786H213.307C213.178 124.786 213.061 124.747 212.958 124.67C212.88 124.567 212.842 124.45 212.842 124.321V121.337C212.842 121.208 212.88 121.104 212.958 121.027C213.061 120.924 213.178 120.872 213.307 120.872H232.18ZM251.639 148C251.38 148 251.199 147.884 251.096 147.651L245.981 136.49C245.929 136.387 245.851 136.335 245.748 136.335H241.098C240.968 136.335 240.904 136.4 240.904 136.529V147.535C240.904 147.664 240.852 147.78 240.749 147.884C240.671 147.961 240.568 148 240.439 148H236.873C236.744 148 236.628 147.961 236.524 147.884C236.447 147.78 236.408 147.664 236.408 147.535V121.337C236.408 121.208 236.447 121.104 236.524 121.027C236.628 120.924 236.744 120.872 236.873 120.872H247.531C249.107 120.872 250.502 121.208 251.716 121.88C252.931 122.525 253.874 123.456 254.545 124.67C255.217 125.858 255.553 127.228 255.553 128.778C255.553 130.561 255.088 132.085 254.158 133.351C253.253 134.591 251.987 135.457 250.36 135.947C250.308 135.947 250.269 135.973 250.244 136.025C250.218 136.077 250.218 136.128 250.244 136.18L255.708 147.457C255.76 147.561 255.785 147.638 255.785 147.69C255.785 147.897 255.643 148 255.359 148H251.639ZM241.098 124.747C240.968 124.747 240.904 124.812 240.904 124.941V132.653C240.904 132.782 240.968 132.847 241.098 132.847H246.911C248.151 132.847 249.145 132.485 249.895 131.762C250.67 131.013 251.057 130.031 251.057 128.817C251.057 127.602 250.67 126.621 249.895 125.871C249.145 125.122 248.151 124.747 246.911 124.747H241.098ZM277.516 148C277.257 148 277.089 147.871 277.012 147.612L275.733 143.466C275.681 143.362 275.617 143.311 275.539 143.311H265.308C265.231 143.311 265.166 143.362 265.114 143.466L263.835 147.612C263.758 147.871 263.59 148 263.332 148H259.456C259.301 148 259.185 147.961 259.107 147.884C259.03 147.78 259.017 147.638 259.069 147.457L267.478 121.259C267.556 121.001 267.724 120.872 267.982 120.872H272.826C273.085 120.872 273.253 121.001 273.33 121.259L281.779 147.457C281.805 147.509 281.817 147.574 281.817 147.651C281.817 147.884 281.675 148 281.391 148H277.516ZM266.316 139.552C266.29 139.707 266.342 139.784 266.471 139.784H274.338C274.493 139.784 274.545 139.707 274.493 139.552L270.501 126.569C270.475 126.465 270.437 126.414 270.385 126.414C270.333 126.414 270.294 126.465 270.269 126.569L266.316 139.552ZM291.318 148C291.059 148 290.891 147.871 290.814 147.612L282.675 121.415L282.637 121.259C282.637 121.001 282.779 120.872 283.063 120.872H286.9C287.184 120.872 287.365 121.001 287.442 121.259L293.255 141.489C293.281 141.567 293.32 141.606 293.372 141.606C293.423 141.606 293.462 141.567 293.488 141.489L299.262 121.259C299.34 121.001 299.521 120.872 299.805 120.872H303.564C303.719 120.872 303.835 120.924 303.913 121.027C303.99 121.13 304.003 121.259 303.952 121.415L295.697 147.612C295.619 147.871 295.451 148 295.193 148H291.318ZM325.598 124.282C325.598 124.412 325.547 124.528 325.443 124.631C325.366 124.709 325.262 124.747 325.133 124.747H311.918C311.789 124.747 311.724 124.812 311.724 124.941V132.188C311.724 132.317 311.789 132.382 311.918 132.382H320.793C320.922 132.382 321.025 132.434 321.103 132.537C321.206 132.615 321.258 132.718 321.258 132.847V135.792C321.258 135.922 321.206 136.038 321.103 136.141C321.025 136.219 320.922 136.257 320.793 136.257H311.918C311.789 136.257 311.724 136.322 311.724 136.451V143.931C311.724 144.06 311.789 144.125 311.918 144.125H325.133C325.262 144.125 325.366 144.176 325.443 144.28C325.547 144.357 325.598 144.46 325.598 144.59V147.535C325.598 147.664 325.547 147.78 325.443 147.884C325.366 147.961 325.262 148 325.133 148H307.694C307.565 148 307.448 147.961 307.345 147.884C307.268 147.78 307.229 147.664 307.229 147.535V121.337C307.229 121.208 307.268 121.104 307.345 121.027C307.448 120.924 307.565 120.872 307.694 120.872H325.133C325.262 120.872 325.366 120.924 325.443 121.027C325.547 121.104 325.598 121.208 325.598 121.337V124.282ZM330.241 148C330.112 148 329.996 147.961 329.892 147.884C329.815 147.78 329.776 147.664 329.776 147.535V121.337C329.776 121.208 329.815 121.104 329.892 121.027C329.996 120.924 330.112 120.872 330.241 120.872H333.806C333.936 120.872 334.039 120.924 334.116 121.027C334.22 121.104 334.271 121.208 334.271 121.337V143.931C334.271 144.06 334.336 144.125 334.465 144.125H347.448C347.577 144.125 347.68 144.176 347.758 144.28C347.861 144.357 347.913 144.46 347.913 144.59V147.535C347.913 147.664 347.861 147.78 347.758 147.884C347.68 147.961 347.577 148 347.448 148H330.241Z" fill="white"></path></svg>