<svg xmlns="http://www.w3.org/2000/svg" width="126" height="41" viewBox="0 0 126 41" fill="none"><path d="M76.3875 22.7806C76.2107 22.7806 76.0957 22.6922 76.0427 22.5154L75.2469 19.9158C75.2115 19.8451 75.1673 19.8097 75.1142 19.8097H68.5888C68.5357 19.8097 68.4915 19.8451 68.4561 19.9158L67.6869 22.5154C67.6338 22.6922 67.5189 22.7806 67.342 22.7806H63.9732C63.8671 22.7806 63.7875 22.7541 63.7345 22.7011C63.6814 22.6303 63.6726 22.5331 63.7079 22.4093L69.4376 4.47748C69.4907 4.30064 69.6056 4.21222 69.7825 4.21222H73.9471C74.1239 4.21222 74.2389 4.30064 74.2919 4.47748L80.0216 22.4093C80.0393 22.4446 80.0481 22.4889 80.0481 22.5419C80.0481 22.7011 79.9509 22.7806 79.7564 22.7806H76.3875ZM69.4111 16.7592C69.3934 16.8653 69.4288 16.9183 69.5172 16.9183H74.1858C74.2919 16.9183 74.3273 16.8653 74.2919 16.7592L71.9046 8.88085C71.8869 8.81011 71.8603 8.78359 71.825 8.80127C71.7896 8.80127 71.7631 8.8278 71.7454 8.88085L69.4111 16.7592Z" fill="#F9F5ED"></path><path d="M57.7167 4.53054C57.7167 4.44211 57.7432 4.37138 57.7963 4.31833C57.867 4.24759 57.9466 4.21222 58.035 4.21222H61.1386C61.227 4.21222 61.2978 4.24759 61.3508 4.31833C61.4216 4.37138 61.4569 4.44211 61.4569 4.53054V22.4623C61.4569 22.5507 61.4216 22.6303 61.3508 22.7011C61.2978 22.7541 61.227 22.7806 61.1386 22.7806H58.035C57.9466 22.7806 57.867 22.7541 57.7963 22.7011C57.7432 22.6303 57.7167 22.5507 57.7167 22.4623V15.1411C57.7167 15.0526 57.6725 15.0084 57.5841 15.0084H51.7218C51.6334 15.0084 51.5891 15.0526 51.5891 15.1411V22.4623C51.5891 22.5507 51.5538 22.6303 51.483 22.7011C51.43 22.7541 51.3593 22.7806 51.2708 22.7806H48.1673C48.0788 22.7806 47.9993 22.7541 47.9285 22.7011C47.8755 22.6303 47.8489 22.5507 47.8489 22.4623V4.53054C47.8489 4.44211 47.8755 4.37138 47.9285 4.31833C47.9993 4.24759 48.0788 4.21222 48.1673 4.21222H51.2708C51.3593 4.21222 51.43 4.24759 51.483 4.31833C51.5538 4.37138 51.5891 4.44211 51.5891 4.53054V11.6661C51.5891 11.7545 51.6334 11.7987 51.7218 11.7987H57.5841C57.6725 11.7987 57.7167 11.7545 57.7167 11.6661V4.53054Z" fill="#F9F5ED"></path><path d="M38.2358 22.9928C36.8565 22.9928 35.6451 22.7276 34.6017 22.1971C33.5584 21.6488 32.7537 20.8884 32.1878 19.9158C31.6219 18.9432 31.339 17.8202 31.339 16.5469V10.4194C31.339 9.1461 31.6219 8.02316 32.1878 7.05052C32.7537 6.07789 33.5584 5.32632 34.6017 4.79579C35.6451 4.26526 36.8565 4 38.2358 4C39.5975 4 40.7912 4.25642 41.8169 4.76926C42.8603 5.26442 43.6649 5.98063 44.2308 6.91789C44.8144 7.83747 45.1061 8.90737 45.1061 10.1276C45.1061 10.2867 45 10.384 44.7878 10.4194L41.6843 10.6051H41.6312C41.4544 10.6051 41.3659 10.5078 41.3659 10.3133C41.3659 9.376 41.0741 8.62442 40.4906 8.05853C39.9247 7.49263 39.1731 7.20968 38.2358 7.20968C37.2809 7.20968 36.5116 7.49263 35.928 8.05853C35.3621 8.62442 35.0792 9.376 35.0792 10.3133V16.7061C35.0792 17.6257 35.3621 18.3684 35.928 18.9343C36.5116 19.5002 37.2809 19.7832 38.2358 19.7832C39.1731 19.7832 39.9247 19.5002 40.4906 18.9343C41.0741 18.3684 41.3659 17.6257 41.3659 16.7061C41.3659 16.5116 41.472 16.4143 41.6843 16.4143L44.7878 16.5469C44.8763 16.5469 44.947 16.5735 45 16.6265C45.0708 16.6796 45.1061 16.7415 45.1061 16.8122C45.1061 18.0324 44.8144 19.1112 44.2308 20.0484C43.6649 20.9857 42.8603 21.7107 41.8169 22.2236C40.7912 22.7364 39.5975 22.9928 38.2358 22.9928Z" fill="#F9F5ED"></path><path d="M26.288 22.7806C26.1112 22.7806 25.9962 22.6922 25.9432 22.5154L25.1474 19.9158C25.112 19.8451 25.0678 19.8097 25.0148 19.8097H18.4893C18.4362 19.8097 18.392 19.8451 18.3567 19.9158L17.5874 22.5154C17.5343 22.6922 17.4194 22.7806 17.2425 22.7806H13.8737C13.7676 22.7806 13.688 22.7541 13.635 22.7011C13.5819 22.6303 13.5731 22.5331 13.6084 22.4093L19.3381 4.47748C19.3912 4.30064 19.5061 4.21222 19.683 4.21222H23.8476C24.0244 4.21222 24.1394 4.30064 24.1924 4.47748L29.9221 22.4093C29.9398 22.4446 29.9487 22.4889 29.9487 22.5419C29.9487 22.7011 29.8514 22.7806 29.6569 22.7806H26.288ZM19.3116 16.7592C19.2939 16.8653 19.3293 16.9183 19.4177 16.9183H24.0863C24.1924 16.9183 24.2278 16.8653 24.1924 16.7592L21.8051 8.88085C21.7874 8.81011 21.7609 8.78359 21.7255 8.80127C21.6901 8.80127 21.6636 8.8278 21.6459 8.88085L19.3116 16.7592Z" fill="#F9F5ED"></path><path d="M7.79874 4.18568C8.96589 4.18568 9.99158 4.42442 10.8758 4.90189C11.76 5.37937 12.4408 6.06021 12.9183 6.94442C13.4135 7.81095 13.6611 8.8101 13.6611 9.94189C13.6611 11.056 13.4046 12.0375 12.8918 12.8863C12.3966 13.7352 11.6893 14.3983 10.7697 14.8758C9.86779 15.3356 8.82442 15.5655 7.63958 15.5655H3.87284C3.78442 15.5655 3.74021 15.6097 3.74021 15.6981V22.4623C3.74021 22.5507 3.70484 22.6303 3.63411 22.7011C3.58105 22.7541 3.51032 22.7806 3.42189 22.7806H0.318316C0.229895 22.7806 0.150316 22.7541 0.079579 22.7011C0.0265263 22.6303 0 22.5507 0 22.4623V4.504C0 4.41558 0.0265263 4.34484 0.079579 4.29179C0.150316 4.22105 0.229895 4.18568 0.318316 4.18568H7.79874ZM7.24168 12.568C8.05516 12.568 8.70947 12.3381 9.20463 11.8783C9.69979 11.4008 9.94737 10.7819 9.94737 10.0215C9.94737 9.24337 9.69979 8.61558 9.20463 8.1381C8.70947 7.66063 8.05516 7.42189 7.24168 7.42189H3.87284C3.78442 7.42189 3.74021 7.46611 3.74021 7.55453V12.4354C3.74021 12.5238 3.78442 12.568 3.87284 12.568H7.24168Z" fill="#F9F5ED"></path><path d="M79.2554 36.8145C79.1685 36.8145 79.1251 36.771 79.1251 36.6842V27.8261C79.1251 27.7393 79.1685 27.6958 79.2554 27.6958H79.9197C80.0066 27.6958 80.05 27.7393 80.05 27.8261V36.6842C80.05 36.771 80.0066 36.8145 79.9197 36.8145H79.2554Z" fill="#F9F5ED"></path><path d="M77.8849 32.4115C77.9197 32.6546 77.937 32.9586 77.937 33.3233V33.7402C77.937 33.827 77.8936 33.8704 77.8068 33.8704H73.5992C73.5644 33.8704 73.5471 33.8878 73.5471 33.9225C73.5644 34.4002 73.5905 34.7085 73.6252 34.8474C73.7207 35.2382 73.9248 35.5465 74.2375 35.7723C74.5501 35.9981 74.9496 36.111 75.4359 36.111C75.8007 36.111 76.122 36.0285 76.3999 35.8635C76.6778 35.6985 76.8949 35.464 77.0512 35.1601C77.1033 35.0819 77.1641 35.0645 77.2336 35.108L77.7416 35.4076C77.8111 35.451 77.8285 35.5118 77.7937 35.59C77.5766 36.0068 77.251 36.3368 76.8167 36.58C76.3825 36.8145 75.8832 36.9317 75.3187 36.9317C74.7021 36.923 74.1854 36.7754 73.7685 36.4888C73.3517 36.2022 73.052 35.8027 72.8697 35.2903C72.7134 34.8735 72.6352 34.2743 72.6352 33.4927C72.6352 33.1279 72.6395 32.8327 72.6482 32.6069C72.6656 32.3724 72.7003 32.164 72.7524 31.9816C72.9001 31.4171 73.1953 30.9655 73.6382 30.6268C74.0898 30.2881 74.6326 30.1188 75.2666 30.1188C76.0569 30.1188 76.6648 30.3185 77.0903 30.718C77.5158 31.1175 77.7807 31.682 77.8849 32.4115ZM75.2666 30.9264C74.841 30.9264 74.485 31.0393 74.1984 31.2651C73.9205 31.4822 73.7381 31.7775 73.6513 32.1509C73.5992 32.3333 73.5644 32.6286 73.5471 33.0367C73.5471 33.0715 73.5644 33.0888 73.5992 33.0888H76.9731C77.0078 33.0888 77.0252 33.0715 77.0252 33.0367C77.0078 32.6459 76.9817 32.368 76.947 32.203C76.8515 31.8122 76.6561 31.5039 76.3608 31.2781C76.0742 31.0437 75.7095 30.9264 75.2666 30.9264Z" fill="#F9F5ED"></path><path d="M69.1961 36.8145C69.1179 36.8145 69.0658 36.7797 69.0398 36.7102L66.9034 30.3663L66.8904 30.3142C66.8904 30.2534 66.9295 30.223 67.0076 30.223H67.7501C67.8283 30.223 67.8804 30.2577 67.9065 30.3272L69.5348 35.4336C69.5435 35.451 69.5565 35.4597 69.5739 35.4597C69.5912 35.4597 69.6043 35.451 69.6129 35.4336L71.2413 30.3272C71.2673 30.2577 71.3194 30.223 71.3976 30.223L72.1401 30.236C72.2356 30.236 72.2704 30.2838 72.2443 30.3793L70.108 36.7102C70.0819 36.7797 70.0298 36.8145 69.9516 36.8145H69.1961Z" fill="#F9F5ED"></path><path d="M63.8697 30.1188C64.6513 30.1188 65.2549 30.3185 65.6804 30.718C66.106 31.1175 66.3187 31.6472 66.3187 32.3072V36.6842C66.3187 36.771 66.2753 36.8145 66.1885 36.8145H65.5241C65.4373 36.8145 65.3938 36.771 65.3938 36.6842V36.1501C65.3938 36.1327 65.3852 36.1197 65.3678 36.111C65.3591 36.1023 65.3461 36.1067 65.3287 36.124C65.1116 36.3846 64.8293 36.5843 64.482 36.7233C64.1346 36.8535 63.7481 36.9187 63.3226 36.9187C62.706 36.9187 62.1893 36.7623 61.7724 36.4497C61.3556 36.1371 61.1472 35.6594 61.1472 35.0168C61.1472 34.3655 61.3816 33.8531 61.8506 33.4796C62.3282 33.0975 62.9883 32.9065 63.8306 32.9065H65.3417C65.3765 32.9065 65.3938 32.8891 65.3938 32.8544V32.3594C65.3938 31.9164 65.2679 31.5691 65.0161 31.3172C64.7729 31.0567 64.3908 30.9264 63.8697 30.9264C63.4529 30.9264 63.1142 31.0089 62.8536 31.1739C62.5931 31.3302 62.4324 31.5517 62.3717 31.8383C62.3456 31.9251 62.2935 31.9642 62.2153 31.9555L61.5119 31.8643C61.4164 31.847 61.3773 31.8122 61.3947 31.7601C61.4641 31.2738 61.7247 30.8787 62.1763 30.5747C62.6279 30.2708 63.1923 30.1188 63.8697 30.1188ZM63.505 36.124C64.0174 36.124 64.4603 35.9981 64.8337 35.7463C65.2071 35.4857 65.3938 35.1384 65.3938 34.7041V33.6881C65.3938 33.6533 65.3765 33.636 65.3417 33.636H63.9739C63.4008 33.636 62.9405 33.7532 62.5931 33.9877C62.2457 34.2222 62.072 34.5478 62.072 34.9647C62.072 35.3468 62.2023 35.6377 62.4628 35.8375C62.7321 36.0285 63.0794 36.124 63.505 36.124Z" fill="#F9F5ED"></path><path d="M60.1792 30.1579C60.4658 30.1579 60.7133 30.2143 60.9217 30.3272C60.9912 30.362 61.0173 30.4184 60.9999 30.4966L60.8566 31.1349C60.8306 31.2217 60.7741 31.2478 60.6873 31.213C60.5396 31.1522 60.3703 31.1218 60.1792 31.1218L60.0099 31.1349C59.5583 31.1522 59.1849 31.3216 58.8896 31.6429C58.5943 31.9555 58.4467 32.355 58.4467 32.8414V36.6842C58.4467 36.771 58.4033 36.8145 58.3164 36.8145H57.6521C57.5652 36.8145 57.5218 36.771 57.5218 36.6842V30.3533C57.5218 30.2664 57.5652 30.223 57.6521 30.223H58.3164C58.4033 30.223 58.4467 30.2664 58.4467 30.3533V31.1479C58.4467 31.1739 58.451 31.1913 58.4597 31.2C58.4771 31.2 58.4901 31.1913 58.4988 31.1739C58.6812 30.8526 58.9113 30.6051 59.1892 30.4314C59.4758 30.2491 59.8058 30.1579 60.1792 30.1579Z" fill="#F9F5ED"></path><path d="M57.1231 27.6958C57.21 27.6958 57.2534 27.7393 57.2534 27.8261V28.3862C57.2534 28.4731 57.21 28.5165 57.1231 28.5165H54.5699C54.5352 28.5165 54.5178 28.5339 54.5178 28.5686V36.6842C54.5178 36.771 54.4744 36.8145 54.3875 36.8145H53.7232C53.6363 36.8145 53.5929 36.771 53.5929 36.6842V28.5686C53.5929 28.5339 53.5756 28.5165 53.5408 28.5165H51.0918C51.005 28.5165 50.9615 28.4731 50.9615 28.3862V27.8261C50.9615 27.7393 51.005 27.6958 51.0918 27.6958H57.1231Z" fill="#F9F5ED"></path><path d="M47.1175 27.8261C47.1175 27.7393 47.1609 27.6958 47.2477 27.6958H47.9121C47.9989 27.6958 48.0424 27.7393 48.0424 27.8261V36.6842C48.0424 36.771 47.9989 36.8145 47.9121 36.8145H47.2477C47.1609 36.8145 47.1175 36.771 47.1175 36.6842V36.1371C47.1175 36.1197 47.1088 36.111 47.0914 36.111C47.0827 36.1023 47.0697 36.1067 47.0523 36.1241C46.8613 36.3759 46.6225 36.5713 46.3359 36.7103C46.058 36.8492 45.7453 36.9187 45.398 36.9187C44.7901 36.9187 44.2777 36.7624 43.8608 36.4497C43.4527 36.1371 43.1704 35.7115 43.0141 35.1731C42.8925 34.7823 42.8317 34.2309 42.8317 33.5187C42.8317 32.7979 42.8838 32.2595 42.988 31.9034C43.1444 31.3476 43.431 30.9134 43.8478 30.6008C44.2647 30.2794 44.7814 30.1188 45.398 30.1188C45.7367 30.1188 46.0493 30.1883 46.3359 30.3272C46.6225 30.4575 46.8613 30.6485 47.0523 30.9004C47.0697 30.9177 47.0827 30.9264 47.0914 30.9264C47.1088 30.9177 47.1175 30.9047 47.1175 30.8874V27.8261ZM46.883 35.108C46.9612 34.9343 47.0176 34.7302 47.0523 34.4957C47.0871 34.2612 47.1045 33.9356 47.1045 33.5187C47.1045 33.1019 47.0871 32.7762 47.0523 32.5417C47.0176 32.2986 46.9568 32.0858 46.87 31.9034C46.7658 31.6082 46.5921 31.3737 46.3489 31.2C46.1144 31.0176 45.8322 30.9264 45.5022 30.9264C45.1548 30.9264 44.8552 31.0133 44.6033 31.187C44.3515 31.3607 44.1691 31.5908 44.0562 31.8774C43.952 32.0684 43.8739 32.2855 43.8217 32.5287C43.7783 32.7632 43.7566 33.0932 43.7566 33.5187C43.7566 33.9269 43.774 34.2482 43.8087 34.4827C43.8435 34.7085 43.9043 34.9126 43.9911 35.095C44.0953 35.4076 44.2777 35.6551 44.5382 35.8375C44.8074 36.0198 45.1244 36.111 45.4892 36.111C45.8365 36.111 46.1275 36.0198 46.3619 35.8375C46.5964 35.6551 46.7701 35.4119 46.883 35.108Z" fill="#F9F5ED"></path><path d="M39.481 30.1318C40.1757 30.1318 40.7272 30.3359 41.1353 30.7441C41.5522 31.1522 41.7606 31.6993 41.7606 32.3854V36.6842C41.7606 36.771 41.7172 36.8145 41.6303 36.8145H40.966C40.8791 36.8145 40.8357 36.771 40.8357 36.6842V32.5678C40.8357 32.0901 40.6881 31.6993 40.3928 31.3954C40.1062 31.0914 39.7328 30.9395 39.2725 30.9395C38.7949 30.9395 38.4084 31.0871 38.1132 31.3824C37.8179 31.6776 37.6703 32.0641 37.6703 32.5417V36.6842C37.6703 36.771 37.6268 36.8145 37.54 36.8145H36.8756C36.7888 36.8145 36.7454 36.771 36.7454 36.6842V30.3533C36.7454 30.2664 36.7888 30.223 36.8756 30.223H37.54C37.6268 30.223 37.6703 30.2664 37.6703 30.3533V30.9134C37.6703 30.9308 37.6746 30.9438 37.6833 30.9525C37.7006 30.9612 37.7137 30.9568 37.7224 30.9395C38.1045 30.401 38.6907 30.1318 39.481 30.1318Z" fill="#F9F5ED"></path><path d="M33.023 30.1188C33.8046 30.1188 34.4082 30.3185 34.8337 30.718C35.2593 31.1175 35.472 31.6472 35.472 32.3072V36.6842C35.472 36.771 35.4286 36.8145 35.3418 36.8145H34.6774C34.5906 36.8145 34.5472 36.771 34.5472 36.6842V36.1501C34.5472 36.1327 34.5385 36.1197 34.5211 36.111C34.5124 36.1023 34.4994 36.1067 34.482 36.124C34.2649 36.3846 33.9827 36.5843 33.6353 36.7233C33.2879 36.8535 32.9015 36.9187 32.4759 36.9187C31.8593 36.9187 31.3426 36.7623 30.9258 36.4497C30.5089 36.1371 30.3005 35.6594 30.3005 35.0168C30.3005 34.3655 30.535 33.8531 31.0039 33.4796C31.4816 33.0975 32.1416 32.9065 32.984 32.9065H34.495C34.5298 32.9065 34.5472 32.8891 34.5472 32.8544V32.3594C34.5472 31.9164 34.4212 31.5691 34.1694 31.3172C33.9262 31.0567 33.5441 30.9264 33.023 30.9264C32.6062 30.9264 32.2675 31.0089 32.007 31.1739C31.7464 31.3302 31.5858 31.5517 31.525 31.8383C31.4989 31.9251 31.4468 31.9642 31.3687 31.9555L30.6652 31.8643C30.5697 31.847 30.5306 31.8122 30.548 31.7601C30.6175 31.2738 30.878 30.8787 31.3296 30.5747C31.7812 30.2708 32.3457 30.1188 33.023 30.1188ZM32.6583 36.124C33.1707 36.124 33.6136 35.9981 33.987 35.7463C34.3604 35.4857 34.5472 35.1384 34.5472 34.7041V33.6881C34.5472 33.6533 34.5298 33.636 34.495 33.636H33.1273C32.5541 33.636 32.0938 33.7532 31.7464 33.9877C31.3991 34.2222 31.2254 34.5478 31.2254 34.9647C31.2254 35.3468 31.3556 35.6377 31.6162 35.8375C31.8854 36.0285 32.2328 36.124 32.6583 36.124Z" fill="#F9F5ED"></path><path d="M25.329 36.8796C24.8427 36.8796 24.4085 36.8014 24.0263 36.6451C23.6529 36.4888 23.362 36.2804 23.1536 36.0198C22.9538 35.7593 22.8539 35.4684 22.8539 35.1471V34.9907C22.8539 34.9039 22.8974 34.8605 22.9842 34.8605H23.6095C23.6963 34.8605 23.7398 34.9039 23.7398 34.9907V35.095C23.7398 35.3815 23.8874 35.6334 24.1827 35.8505C24.4866 36.0589 24.8644 36.1631 25.316 36.1631C25.7676 36.1631 26.1323 36.0633 26.4102 35.8635C26.6881 35.6551 26.8271 35.3946 26.8271 35.0819C26.8271 34.8648 26.7532 34.6868 26.6056 34.5478C26.4667 34.4089 26.2973 34.3003 26.0976 34.2222C25.9065 34.144 25.6069 34.0441 25.1987 33.9226C24.7124 33.7836 24.3129 33.6447 24.0003 33.5057C23.6876 33.3668 23.4228 33.1757 23.2057 32.9325C22.9972 32.6807 22.893 32.3637 22.893 31.9816C22.893 31.4258 23.1101 30.9829 23.5444 30.6529C23.9786 30.3229 24.5517 30.1579 25.2639 30.1579C25.7415 30.1579 26.1627 30.236 26.5274 30.3923C26.9009 30.5487 27.1875 30.7658 27.3872 31.0437C27.5869 31.3129 27.6868 31.6168 27.6868 31.9555V31.9946C27.6868 32.0815 27.6434 32.1249 27.5566 32.1249H26.9443C26.8575 32.1249 26.814 32.0815 26.814 31.9946V31.9555C26.814 31.6603 26.6707 31.4128 26.3842 31.213C26.1063 31.0133 25.7285 30.9134 25.2508 30.9134C24.8079 30.9134 24.4519 31.0046 24.1827 31.187C23.9134 31.3607 23.7788 31.6038 23.7788 31.9165C23.7788 32.2117 23.9091 32.4375 24.1696 32.5938C24.4302 32.7502 24.834 32.9065 25.3811 33.0628C25.8848 33.2104 26.293 33.3494 26.6056 33.4797C26.9182 33.6099 27.1875 33.801 27.4133 34.0528C27.6391 34.296 27.752 34.6173 27.752 35.0168C27.752 35.5813 27.5305 36.0329 27.0876 36.3716C26.6447 36.7103 26.0585 36.8796 25.329 36.8796Z" fill="#F9F5ED"></path><path d="M21.7685 30.1579C22.055 30.1579 22.3025 30.2143 22.511 30.3272C22.5804 30.362 22.6065 30.4184 22.5891 30.4966L22.4458 31.1349C22.4198 31.2217 22.3633 31.2478 22.2765 31.213C22.1289 31.1522 21.9595 31.1218 21.7685 31.1218L21.5991 31.1349C21.1475 31.1522 20.7741 31.3216 20.4788 31.6429C20.1835 31.9555 20.0359 32.355 20.0359 32.8414V36.6842C20.0359 36.771 19.9925 36.8145 19.9056 36.8145H19.2413C19.1544 36.8145 19.111 36.771 19.111 36.6842V30.3533C19.111 30.2664 19.1544 30.223 19.2413 30.223H19.9056C19.9925 30.223 20.0359 30.2664 20.0359 30.3533V31.1479C20.0359 31.1739 20.0403 31.1913 20.0489 31.2C20.0663 31.2 20.0793 31.1913 20.088 31.1739C20.2704 30.8526 20.5005 30.6051 20.7784 30.4314C21.065 30.2491 21.395 30.1579 21.7685 30.1579Z" fill="#F9F5ED"></path><path d="M16.7646 30.3533C16.7646 30.2664 16.808 30.223 16.8948 30.223H17.5592C17.646 30.223 17.6894 30.2664 17.6894 30.3533V36.6842C17.6894 36.771 17.646 36.8145 17.5592 36.8145H16.8948C16.808 36.8145 16.7646 36.771 16.7646 36.6842V36.1241C16.7646 36.1067 16.7559 36.0937 16.7385 36.085C16.7211 36.0763 16.7081 36.0806 16.6994 36.098C16.3347 36.6364 15.7572 36.9056 14.9669 36.9056C14.55 36.9056 14.1636 36.8231 13.8075 36.6581C13.4601 36.4845 13.1822 36.2369 12.9738 35.9156C12.7741 35.5943 12.6742 35.2078 12.6742 34.7563V30.3533C12.6742 30.2664 12.7176 30.223 12.8045 30.223H13.4688C13.5557 30.223 13.5991 30.2664 13.5991 30.3533V34.4827C13.5991 34.9777 13.738 35.3728 14.0159 35.6681C14.2938 35.9547 14.6716 36.098 15.1493 36.098C15.6443 36.098 16.0351 35.9504 16.3216 35.6551C16.6169 35.3598 16.7646 34.969 16.7646 34.4827V30.3533Z" fill="#F9F5ED"></path><path d="M8.84539 36.9187C8.22011 36.9187 7.68168 36.758 7.23009 36.4367C6.7785 36.1154 6.46586 35.6725 6.29217 35.108C6.17059 34.7085 6.1098 34.1744 6.1098 33.5057C6.1098 32.837 6.17059 32.3072 6.29217 31.9164C6.45718 31.3606 6.76548 30.9221 7.21706 30.6008C7.66865 30.2794 8.21577 30.1188 8.85842 30.1188C9.47501 30.1188 10.0048 30.2794 10.4477 30.6008C10.8993 30.9221 11.2076 31.3563 11.3726 31.9034C11.4941 32.2769 11.5549 32.8109 11.5549 33.5057C11.5549 34.2091 11.4941 34.7432 11.3726 35.108C11.2076 35.6725 10.8993 36.1154 10.4477 36.4367C10.0048 36.758 9.47067 36.9187 8.84539 36.9187ZM8.84539 36.111C9.26224 36.111 9.61831 35.9981 9.91358 35.7723C10.2088 35.5378 10.4086 35.2252 10.5128 34.8344C10.591 34.5218 10.63 34.0832 10.63 33.5187C10.63 32.9456 10.5953 32.507 10.5258 32.203C10.4216 31.8122 10.2175 31.5039 9.91358 31.2781C9.61831 31.0437 9.2579 30.9264 8.83237 30.9264C8.40683 30.9264 8.04643 31.0437 7.75116 31.2781C7.45589 31.5039 7.25614 31.8122 7.15193 32.203C7.08246 32.507 7.04772 32.9456 7.04772 33.5187C7.04772 34.0919 7.08246 34.5305 7.15193 34.8344C7.24746 35.2252 7.44286 35.5378 7.73813 35.7723C8.04208 35.9981 8.41117 36.111 8.84539 36.111Z" fill="#F9F5ED"></path><path d="M6.16159 27.6958C6.24843 27.6958 6.29186 27.7393 6.29186 27.8261V28.3862C6.29186 28.4731 6.24843 28.5165 6.16159 28.5165H3.60837C3.57364 28.5165 3.55627 28.5339 3.55627 28.5686V36.6842C3.55627 36.771 3.51284 36.8145 3.426 36.8145H2.76164C2.6748 36.8145 2.63138 36.771 2.63138 36.6842V28.5686C2.63138 28.5339 2.61401 28.5165 2.57927 28.5165H0.130266C0.0434221 28.5165 0 28.4731 0 28.3862V27.8261C0 27.7393 0.0434221 27.6958 0.130266 27.6958H6.16159Z" fill="#F9F5ED"></path><path d="M121.108 1.12941C121.248 1.26414 120.699 1.74552 120.587 1.85017C119.546 2.81946 118.137 3.48397 116.742 3.74558L116.662 4.00459C123.049 8.51095 126.385 16.4903 125.816 24.2825C124.007 22.2629 122.181 20.0954 119.669 18.9207C122.321 22.5284 122.395 26.9929 120.117 30.8125C117.435 35.3084 112.167 37.6734 107.244 38.801L109.076 37.4301C112.558 34.4058 114.018 30.6385 111.495 26.3755C111.122 27.2781 110.976 28.2147 110.574 29.1172C108.413 33.982 102.15 36.4151 97.1073 36.5825C96.9582 36.5877 96.8195 36.6073 96.9725 36.4464C97.6423 35.7466 99.2486 34.8166 100.109 34.0893C100.907 33.4156 101.665 32.6739 102.401 31.9335C102.316 31.7622 102.043 31.9296 101.908 31.9636C98.0465 32.9499 93.1542 35.2077 90.6322 38.3471L88.9291 40.8939C88.8297 39.1045 89.3098 37.353 90.181 35.8029C93.6487 29.6352 104.641 25.0713 102.045 16.5923C100.516 11.5941 93.977 8.62475 89.4524 11.5287L88.9291 12.5072C88.6806 9.29711 90.3 6.68617 93.3073 5.57168C93.7298 5.4147 95.3244 5.10076 95.4709 4.98827C95.6265 4.86923 95.62 4.45326 95.7456 4.2165C96.2662 3.2472 99.4514 1.45643 100.534 1.02607C106.299 -1.26308 110.622 0.948896 116.332 1.25499C117.864 1.3374 119.595 1.29685 121.104 1.12549L121.108 1.12941ZM100.965 3.35447C100.213 3.38063 99.5076 3.64225 98.8039 3.87378C98.1603 4.08569 97.2865 4.37478 96.7789 4.79075C97.6331 4.622 97.862 5.44348 98.7816 5.15832C99.403 4.96603 99.0877 4.23219 99.1427 4.1524C99.297 3.92872 100.78 3.76913 100.965 3.35316V3.35447Z" fill="#78814A"></path></svg>